<svg width="960" height="760" viewBox="0 0 960 760" fill="none" xmlns="http://www.w3.org/2000/svg">
  <defs>
    <linearGradient id="reviewGlow" x1="136" y1="100" x2="822" y2="648" gradientUnits="userSpaceOnUse">
      <stop stop-color="#D8E8FF"/>
      <stop offset="1" stop-color="#CFF8EF"/>
    </linearGradient>
    <linearGradient id="reviewSurface" x1="152" y1="140" x2="728" y2="616" gradientUnits="userSpaceOnUse">
      <stop stop-color="#10203A"/>
      <stop offset="1" stop-color="#1A3158"/>
    </linearGradient>
    <linearGradient id="reviewAccent" x1="0" y1="0" x2="1" y2="1">
      <stop stop-color="#7BC7FF"/>
      <stop offset="1" stop-color="#2B86FF"/>
    </linearGradient>
    <linearGradient id="reviewMint" x1="0" y1="0" x2="1" y2="1">
      <stop stop-color="#9BF4D9"/>
      <stop offset="1" stop-color="#2DAE91"/>
    </linearGradient>
  </defs>

  <circle cx="202" cy="198" r="110" fill="#B6D4FF" fill-opacity="0.44"/>
  <circle cx="748" cy="180" r="126" fill="#BDF1E6" fill-opacity="0.42"/>

  <rect x="118" y="118" width="724" height="524" rx="42" fill="url(#reviewGlow)" fill-opacity="0.34"/>
  <rect x="156" y="154" width="646" height="452" rx="30" fill="url(#reviewSurface)"/>

  <rect x="196" y="198" width="188" height="364" rx="26" fill="#0C192D"/>
  <rect x="222" y="226" width="110" height="16" rx="8" fill="#DCEBFF" fill-opacity="0.82"/>
  <rect x="222" y="270" width="136" height="82" rx="22" fill="#142B4E"/>
  <rect x="244" y="296" width="92" height="14" rx="7" fill="#BCE1FF" fill-opacity="0.7"/>
  <rect x="244" y="326" width="64" height="12" rx="6" fill="#BCE1FF" fill-opacity="0.24"/>
  <rect x="222" y="378" width="136" height="82" rx="22" fill="#142B4E"/>
  <rect x="244" y="404" width="74" height="14" rx="7" fill="#A2F0D6" fill-opacity="0.72"/>
  <rect x="244" y="434" width="86" height="12" rx="6" fill="#DFFAF3" fill-opacity="0.2"/>
  <rect x="222" y="486" width="136" height="46" rx="18" fill="#132541"/>
  <rect x="244" y="502" width="94" height="12" rx="6" fill="#EAF4FF" fill-opacity="0.22"/>

  <rect x="422" y="198" width="340" height="116" rx="28" fill="#0E2038"/>
  <rect x="448" y="224" width="120" height="16" rx="8" fill="#F1F7FF" fill-opacity="0.82"/>
  <rect x="448" y="258" width="102" height="38" rx="19" fill="url(#reviewAccent)"/>
  <rect x="574" y="258" width="112" height="38" rx="19" fill="#F4FBFF" fill-opacity="0.14"/>

  <rect x="422" y="338" width="340" height="116" rx="28" fill="#0E2038"/>
  <rect x="448" y="364" width="132" height="16" rx="8" fill="#F1F7FF" fill-opacity="0.82"/>
  <rect x="448" y="398" width="118" height="38" rx="19" fill="url(#reviewMint)"/>
  <rect x="590" y="398" width="96" height="38" rx="19" fill="#F4FBFF" fill-opacity="0.14"/>

  <rect x="422" y="480" width="340" height="84" rx="24" fill="#0E2038"/>
  <rect x="448" y="507" width="104" height="14" rx="7" fill="#F1F7FF" fill-opacity="0.82"/>
  <rect x="570" y="507" width="164" height="14" rx="7" fill="#F1F7FF" fill-opacity="0.2"/>
  <rect x="448" y="535" width="286" height="12" rx="6" fill="#F1F7FF" fill-opacity="0.14"/>

  <path d="M384 302C426 302 420 252 472 252" stroke="#7BC7FF" stroke-width="10" stroke-linecap="round"/>
  <path d="M384 408C434 408 420 416 472 416" stroke="#9BF4D9" stroke-width="10" stroke-linecap="round"/>
  <path d="M384 510C434 510 426 522 472 522" stroke="#FFD89A" stroke-width="10" stroke-linecap="round"/>

  <rect x="698" y="126" width="122" height="82" rx="22" fill="#FCFEFF" fill-opacity="0.72"/>
  <rect x="698" y="126" width="122" height="82" rx="22" stroke="#B2D1FF" stroke-opacity="0.4"/>
  <rect x="722" y="152" width="72" height="14" rx="7" fill="#1D74F4" fill-opacity="0.86"/>
  <rect x="722" y="178" width="46" height="10" rx="5" fill="#173157" fill-opacity="0.2"/>
</svg>
