<svg width="1280" height="960" viewBox="0 0 1280 960" fill="none" xmlns="http://www.w3.org/2000/svg">
  <defs>
    <linearGradient id="bgGlowA" x1="160" y1="92" x2="1128" y2="848" gradientUnits="userSpaceOnUse">
      <stop stop-color="#DCEBFF"/>
      <stop offset="0.45" stop-color="#B8D4FF"/>
      <stop offset="1" stop-color="#D7FFF6"/>
    </linearGradient>
    <linearGradient id="surfaceA" x1="278" y1="172" x2="917" y2="689" gradientUnits="userSpaceOnUse">
      <stop stop-color="#10213B"/>
      <stop offset="1" stop-color="#1C3154"/>
    </linearGradient>
    <linearGradient id="surfaceB" x1="474" y1="250" x2="1065" y2="687" gradientUnits="userSpaceOnUse">
      <stop stop-color="#1F355D"/>
      <stop offset="1" stop-color="#11223D"/>
    </linearGradient>
    <linearGradient id="accentBlue" x1="592" y1="348" x2="592" y2="520" gradientUnits="userSpaceOnUse">
      <stop stop-color="#6DB8FF"/>
      <stop offset="1" stop-color="#1F7BFF"/>
    </linearGradient>
    <linearGradient id="accentMint" x1="878" y1="413" x2="1035" y2="587" gradientUnits="userSpaceOnUse">
      <stop stop-color="#86F5D0"/>
      <stop offset="1" stop-color="#35B99A"/>
    </linearGradient>
    <linearGradient id="accentGold" x1="317" y1="464" x2="438" y2="640" gradientUnits="userSpaceOnUse">
      <stop stop-color="#FFD99F"/>
      <stop offset="1" stop-color="#D7902C"/>
    </linearGradient>
    <filter id="blurA" x="0" y="0" width="1280" height="960" filterUnits="userSpaceOnUse" color-interpolation-filters="sRGB">
      <feGaussianBlur stdDeviation="48"/>
    </filter>
  </defs>

  <g filter="url(#blurA)" opacity="0.62">
    <circle cx="308" cy="232" r="142" fill="#A8CDFF"/>
    <circle cx="1026" cy="238" r="184" fill="#BCEFEA"/>
    <circle cx="916" cy="730" r="172" fill="#C7D5FF"/>
  </g>

  <rect x="170" y="120" width="940" height="690" rx="48" fill="url(#bgGlowA)" fill-opacity="0.34"/>

  <rect x="232" y="168" width="702" height="446" rx="34" fill="url(#surfaceA)"/>
  <rect x="232" y="168" width="702" height="446" rx="34" stroke="#5F92D9" stroke-opacity="0.18"/>

  <rect x="270" y="210" width="170" height="362" rx="26" fill="#0D1A2F" fill-opacity="0.86"/>
  <rect x="292" y="238" width="126" height="18" rx="9" fill="#7BB8FF" fill-opacity="0.88"/>
  <rect x="292" y="280" width="104" height="14" rx="7" fill="#E9F2FF" fill-opacity="0.32"/>
  <rect x="292" y="316" width="126" height="54" rx="18" fill="#173157"/>
  <rect x="292" y="390" width="126" height="54" rx="18" fill="#14294A"/>
  <rect x="292" y="464" width="126" height="54" rx="18" fill="#11213E"/>

  <rect x="468" y="210" width="428" height="42" rx="21" fill="#DCEBFF" fill-opacity="0.12"/>
  <rect x="500" y="224" width="196" height="14" rx="7" fill="#ECF5FF" fill-opacity="0.78"/>
  <rect x="718" y="224" width="94" height="14" rx="7" fill="#86F5D0" fill-opacity="0.68"/>

  <rect x="468" y="282" width="264" height="194" rx="28" fill="#122745"/>
  <rect x="494" y="316" width="92" height="128" rx="22" fill="url(#accentBlue)"/>
  <rect x="606" y="352" width="92" height="92" rx="22" fill="#78C8FF" fill-opacity="0.36"/>
  <rect x="494" y="500" width="202" height="18" rx="9" fill="#EAF4FF" fill-opacity="0.24"/>
  <rect x="494" y="532" width="146" height="14" rx="7" fill="#EAF4FF" fill-opacity="0.18"/>

  <rect x="754" y="282" width="142" height="194" rx="28" fill="#0F213C"/>
  <rect x="780" y="314" width="90" height="90" rx="22" fill="url(#accentMint)"/>
  <rect x="780" y="424" width="90" height="20" rx="10" fill="#DFFAF3" fill-opacity="0.24"/>
  <rect x="780" y="456" width="72" height="14" rx="7" fill="#DFFAF3" fill-opacity="0.16"/>

  <rect x="468" y="508" width="428" height="64" rx="24" fill="#DDEBFF" fill-opacity="0.12"/>
  <rect x="494" y="531" width="154" height="16" rx="8" fill="#ECF5FF" fill-opacity="0.7"/>
  <rect x="680" y="531" width="76" height="16" rx="8" fill="#FFD99F" fill-opacity="0.72"/>
  <rect x="778" y="531" width="92" height="16" rx="8" fill="#86F5D0" fill-opacity="0.6"/>

  <rect x="774" y="216" width="290" height="392" rx="34" fill="url(#surfaceB)"/>
  <rect x="774" y="216" width="290" height="392" rx="34" stroke="#8DB5F7" stroke-opacity="0.18"/>
  <rect x="806" y="252" width="136" height="18" rx="9" fill="#F1F7FF" fill-opacity="0.82"/>
  <rect x="962" y="252" width="70" height="18" rx="9" fill="#7CD2FF" fill-opacity="0.64"/>

  <rect x="806" y="298" width="226" height="88" rx="24" fill="#10213A"/>
  <rect x="828" y="324" width="74" height="40" rx="18" fill="#F4FBFF" fill-opacity="0.18"/>
  <rect x="920" y="324" width="88" height="14" rx="7" fill="#F4FBFF" fill-opacity="0.78"/>
  <rect x="920" y="348" width="72" height="12" rx="6" fill="#F4FBFF" fill-opacity="0.34"/>

  <rect x="806" y="404" width="226" height="88" rx="24" fill="#10213A"/>
  <rect x="828" y="430" width="58" height="40" rx="18" fill="url(#accentGold)"/>
  <rect x="906" y="430" width="102" height="14" rx="7" fill="#F4FBFF" fill-opacity="0.78"/>
  <rect x="906" y="454" width="82" height="12" rx="6" fill="#F4FBFF" fill-opacity="0.34"/>

  <rect x="806" y="510" width="226" height="66" rx="22" fill="#10213A"/>
  <rect x="828" y="534" width="128" height="14" rx="7" fill="#F4FBFF" fill-opacity="0.78"/>
  <rect x="970" y="534" width="38" height="14" rx="7" fill="#86F5D0" fill-opacity="0.64"/>

  <g transform="translate(130 442)">
    <rect x="0" y="0" width="220" height="326" rx="34" fill="#0D1930"/>
    <rect x="0" y="0" width="220" height="326" rx="34" stroke="#86B8FF" stroke-opacity="0.2"/>
    <rect x="30" y="36" width="100" height="16" rx="8" fill="#ECF5FF" fill-opacity="0.78"/>
    <rect x="30" y="74" width="160" height="118" rx="26" fill="#13305A"/>
    <rect x="48" y="96" width="124" height="22" rx="11" fill="#86F5D0" fill-opacity="0.42"/>
    <rect x="48" y="134" width="92" height="20" rx="10" fill="#ECF5FF" fill-opacity="0.72"/>
    <rect x="48" y="214" width="142" height="18" rx="9" fill="#ECF5FF" fill-opacity="0.26"/>
    <rect x="48" y="246" width="96" height="14" rx="7" fill="#ECF5FF" fill-opacity="0.16"/>
  </g>

  <rect x="918" y="610" width="160" height="92" rx="24" fill="#FCFEFF" fill-opacity="0.76"/>
  <rect x="918" y="610" width="160" height="92" rx="24" stroke="#9BC1FF" stroke-opacity="0.3"/>
  <rect x="944" y="636" width="66" height="16" rx="8" fill="#1F7BFF" fill-opacity="0.88"/>
  <rect x="944" y="664" width="108" height="12" rx="6" fill="#173157" fill-opacity="0.18"/>

  <rect x="178" y="732" width="210" height="88" rx="24" fill="#FCFEFF" fill-opacity="0.72"/>
  <rect x="178" y="732" width="210" height="88" rx="24" stroke="#B7D1FF" stroke-opacity="0.3"/>
  <rect x="206" y="758" width="132" height="16" rx="8" fill="#163C80" fill-opacity="0.72"/>
  <rect x="206" y="786" width="92" height="12" rx="6" fill="#163C80" fill-opacity="0.18"/>
</svg>
