<svg width="1600" height="1100" viewBox="0 0 1600 1100" fill="none" xmlns="http://www.w3.org/2000/svg">
  <defs>
    <linearGradient id="bg" x1="188" y1="82" x2="1364" y2="1030" gradientUnits="userSpaceOnUse">
      <stop stop-color="#F7FBFF"/>
      <stop offset="0.45" stop-color="#EAF3FF"/>
      <stop offset="1" stop-color="#EEF8F6"/>
    </linearGradient>
    <linearGradient id="surface" x1="408" y1="188" x2="1131" y2="786" gradientUnits="userSpaceOnUse">
      <stop stop-color="#1A2846"/>
      <stop offset="1" stop-color="#0B1630"/>
    </linearGradient>
    <linearGradient id="card" x1="748" y1="392" x2="1005" y2="626" gradientUnits="userSpaceOnUse">
      <stop stop-color="#3C86FF"/>
      <stop offset="1" stop-color="#68C7FF"/>
    </linearGradient>
    <linearGradient id="mobile" x1="298" y1="454" x2="470" y2="796" gradientUnits="userSpaceOnUse">
      <stop stop-color="#17233E"/>
      <stop offset="1" stop-color="#0A1326"/>
    </linearGradient>
    <filter id="shadow" x="254" y="129" width="1112" height="806" filterUnits="userSpaceOnUse" color-interpolation-filters="sRGB">
      <feFlood flood-opacity="0" result="BackgroundImageFix"/>
      <feColorMatrix in="SourceAlpha" type="matrix" values="0 0 0 0 0 0 0 0 0 0 0 0 0 0 0 0 0 0 127 0" result="hardAlpha"/>
      <feOffset dy="26"/>
      <feGaussianBlur stdDeviation="34"/>
      <feColorMatrix type="matrix" values="0 0 0 0 0.0939583 0 0 0 0 0.167275 0 0 0 0 0.318611 0 0 0 0.18 0"/>
      <feBlend mode="normal" in2="BackgroundImageFix" result="effect1_dropShadow_hero"/>
      <feBlend mode="normal" in="SourceGraphic" in2="effect1_dropShadow_hero" result="shape"/>
    </filter>
    <filter id="soft" x="1032" y="233" width="286" height="266" filterUnits="userSpaceOnUse" color-interpolation-filters="sRGB">
      <feFlood flood-opacity="0" result="BackgroundImageFix"/>
      <feColorMatrix in="SourceAlpha" type="matrix" values="0 0 0 0 0 0 0 0 0 0 0 0 0 0 0 0 0 0 127 0" result="hardAlpha"/>
      <feOffset dy="18"/>
      <feGaussianBlur stdDeviation="22"/>
      <feColorMatrix type="matrix" values="0 0 0 0 0.0911458 0 0 0 0 0.162265 0 0 0 0 0.309028 0 0 0 0.16 0"/>
      <feBlend mode="normal" in2="BackgroundImageFix" result="effect1_dropShadow_soft"/>
      <feBlend mode="normal" in="SourceGraphic" in2="effect1_dropShadow_soft" result="shape"/>
    </filter>
  </defs>

  <rect width="1600" height="1100" rx="72" fill="url(#bg)"/>
  <circle cx="1328" cy="194" r="154" fill="#D8EEFF" fill-opacity="0.95"/>
  <circle cx="256" cy="190" r="118" fill="#E8FFF6" fill-opacity="0.9"/>
  <circle cx="1384" cy="882" r="182" fill="#DAFFF2" fill-opacity="0.82"/>

  <g filter="url(#shadow)">
    <rect x="322" y="171" width="976" height="670" rx="38" fill="url(#surface)"/>
    <rect x="366" y="223" width="238" height="578" rx="28" fill="#121D36"/>
    <rect x="640" y="223" width="614" height="84" rx="24" fill="#16223D"/>
    <rect x="640" y="338" width="614" height="278" rx="28" fill="#111D35"/>
    <rect x="640" y="640" width="292" height="123" rx="28" fill="#16243F"/>
    <rect x="962" y="640" width="292" height="123" rx="28" fill="#16243F"/>

    <rect x="402" y="265" width="166" height="18" rx="9" fill="#33466C"/>
    <rect x="402" y="315" width="112" height="14" rx="7" fill="#2A3A5F"/>
    <rect x="402" y="350" width="146" height="14" rx="7" fill="#2A3A5F"/>
    <rect x="402" y="395" width="116" height="112" rx="22" fill="#182743"/>
    <rect x="536" y="395" width="32" height="112" rx="16" fill="#182743"/>
    <rect x="402" y="535" width="166" height="18" rx="9" fill="#33466C"/>
    <rect x="402" y="571" width="124" height="14" rx="7" fill="#2A3A5F"/>
    <rect x="402" y="612" width="166" height="128" rx="24" fill="#182743"/>

    <rect x="690" y="254" width="128" height="20" rx="10" fill="#32466B"/>
    <rect x="1110" y="254" width="104" height="20" rx="10" fill="#293B5F"/>
    <circle cx="706" cy="477" r="88" fill="#14264B"/>
    <rect x="808" y="388" width="221" height="178" rx="26" fill="url(#card)"/>
    <rect x="1058" y="388" width="152" height="50" rx="25" fill="#1A2947"/>
    <rect x="1058" y="462" width="152" height="24" rx="12" fill="#304468"/>
    <rect x="1058" y="506" width="96" height="24" rx="12" fill="#304468"/>
    <rect x="690" y="658" width="92" height="16" rx="8" fill="#304468"/>
    <rect x="690" y="698" width="196" height="18" rx="9" fill="#D8E7FF"/>
    <rect x="690" y="731" width="168" height="14" rx="7" fill="#51678F"/>
    <rect x="1012" y="658" width="112" height="16" rx="8" fill="#304468"/>
    <rect x="1012" y="698" width="180" height="18" rx="9" fill="#D8E7FF"/>
    <rect x="1012" y="731" width="150" height="14" rx="7" fill="#51678F"/>

    <rect x="759" y="430" width="108" height="98" rx="22" fill="#87B5FF"/>
    <rect x="877" y="430" width="111" height="48" rx="20" fill="#D4ECFF"/>
    <rect x="877" y="490" width="111" height="38" rx="19" fill="#BEE3FF"/>
    <rect x="704" y="418" width="16" height="120" rx="8" fill="#68C7FF"/>
  </g>

  <g filter="url(#soft)">
    <rect x="1076" y="277" width="198" height="178" rx="28" fill="#FFFFFF" fill-opacity="0.95"/>
    <rect x="1110" y="317" width="84" height="16" rx="8" fill="#C2DAFF"/>
    <rect x="1110" y="352" width="132" height="14" rx="7" fill="#E2EEFF"/>
    <rect x="1110" y="392" width="154" height="32" rx="16" fill="#EDF5FF"/>
    <rect x="1110" y="439" width="74" height="12" rx="6" fill="#87B5FF"/>
    <rect x="1196" y="439" width="68" height="12" rx="6" fill="#9EDDC9"/>
  </g>

  <g filter="url(#soft)">
    <rect x="184" y="470" width="240" height="360" rx="34" fill="url(#mobile)"/>
    <rect x="216" y="523" width="176" height="188" rx="24" fill="#111F3A"/>
    <rect x="239" y="553" width="72" height="10" rx="5" fill="#D2E3FF"/>
    <rect x="239" y="579" width="114" height="12" rx="6" fill="#2E4369"/>
    <rect x="239" y="615" width="126" height="46" rx="18" fill="#1F73FF"/>
    <rect x="239" y="678" width="134" height="14" rx="7" fill="#405987"/>
    <rect x="216" y="736" width="176" height="40" rx="20" fill="#F4F9FF"/>
    <circle cx="304" cy="756" r="28" fill="#6BC5FF"/>
    <rect x="338" y="744" width="34" height="8" rx="4" fill="#1E355E"/>
    <rect x="338" y="758" width="22" height="8" rx="4" fill="#5D759E"/>
  </g>

  <path d="M464 820C628 886 818 906 1004 862" stroke="#86B7FF" stroke-width="12" stroke-linecap="round" stroke-dasharray="14 18"/>
  <path d="M1098 431C1188 504 1264 606 1310 720" stroke="#83E1C0" stroke-width="10" stroke-linecap="round" stroke-dasharray="12 16"/>
  <circle cx="1006" cy="860" r="24" fill="#1F73FF"/>
  <circle cx="1308" cy="720" r="19" fill="#48C5A2"/>
</svg>
