<svg width="1200" height="760" viewBox="0 0 1200 760" fill="none" xmlns="http://www.w3.org/2000/svg">
  <defs>
    <linearGradient id="roleBg" x1="86" y1="70" x2="1089" y2="702" gradientUnits="userSpaceOnUse">
      <stop stop-color="#F7FBFF"/>
      <stop offset="1" stop-color="#EEF8FF"/>
    </linearGradient>
    <linearGradient id="tablet" x1="214" y1="149" x2="561" y2="618" gradientUnits="userSpaceOnUse">
      <stop stop-color="#13233D"/>
      <stop offset="1" stop-color="#0A1428"/>
    </linearGradient>
    <linearGradient id="phone" x1="716" y1="247" x2="884" y2="571" gradientUnits="userSpaceOnUse">
      <stop stop-color="#182742"/>
      <stop offset="1" stop-color="#0A1427"/>
    </linearGradient>
  </defs>

  <rect width="1200" height="760" rx="56" fill="url(#roleBg)"/>
  <circle cx="184" cy="158" r="122" fill="#DDFBEE"/>
  <circle cx="1042" cy="634" r="146" fill="#DDEEFF"/>

  <rect x="162" y="118" width="440" height="504" rx="40" fill="url(#tablet)"/>
  <rect x="210" y="172" width="344" height="408" rx="28" fill="#112039"/>
  <rect x="252" y="212" width="116" height="16" rx="8" fill="#D8E7FF"/>
  <rect x="252" y="245" width="172" height="12" rx="6" fill="#2F456C"/>
  <rect x="252" y="288" width="262" height="94" rx="24" fill="#1E73FF"/>
  <rect x="252" y="403" width="262" height="18" rx="9" fill="#4B638C"/>
  <rect x="252" y="437" width="200" height="14" rx="7" fill="#31476E"/>
  <rect x="252" y="493" width="262" height="46" rx="23" fill="#F7FBFF"/>

  <rect x="668" y="208" width="250" height="418" rx="42" fill="url(#phone)"/>
  <rect x="700" y="258" width="186" height="326" rx="28" fill="#111F39"/>
  <rect x="732" y="298" width="86" height="14" rx="7" fill="#D8E7FF"/>
  <rect x="732" y="329" width="130" height="12" rx="6" fill="#31476C"/>
  <rect x="732" y="372" width="122" height="122" rx="26" fill="#152B52"/>
  <rect x="748" y="390" width="90" height="30" rx="15" fill="#6FC6FF"/>
  <rect x="748" y="430" width="76" height="22" rx="11" fill="#50D3AF"/>
  <rect x="732" y="520" width="122" height="18" rx="9" fill="#30466B"/>

  <rect x="924" y="156" width="164" height="120" rx="28" fill="#FFFFFF" fill-opacity="0.92"/>
  <rect x="957" y="190" width="72" height="12" rx="6" fill="#A9CBFF"/>
  <rect x="957" y="218" width="104" height="12" rx="6" fill="#DCEBFF"/>
  <rect x="957" y="246" width="86" height="16" rx="8" fill="#ECF6FF"/>

  <rect x="910" y="438" width="188" height="156" rx="28" fill="#FFFFFF" fill-opacity="0.94"/>
  <rect x="944" y="474" width="98" height="14" rx="7" fill="#A9CBFF"/>
  <rect x="944" y="504" width="126" height="12" rx="6" fill="#DCEBFF"/>
  <rect x="944" y="538" width="72" height="24" rx="12" fill="#1F73FF"/>

  <path d="M602 372C660 360 704 388 728 432" stroke="#7FCFB6" stroke-width="10" stroke-linecap="round" stroke-dasharray="12 14"/>
  <path d="M886 339C936 303 985 288 1030 288" stroke="#7BAFFF" stroke-width="10" stroke-linecap="round" stroke-dasharray="12 14"/>
  <circle cx="728" cy="432" r="16" fill="#4FD1AC"/>
  <circle cx="1030" cy="288" r="16" fill="#6DAFFF"/>
</svg>
